<?xml version="1.0" encoding="UTF-8" standalone="no"?>
<!DOCTYPE svg PUBLIC "-//W3C//DTD SVG 1.1//EN" "http://www.w3.org/Graphics/SVG/1.1/DTD/svg11.dtd">
<svg width="100%" height="100%" viewBox="0 0 200 200" version="1.1" xmlns="http://www.w3.org/2000/svg" xmlns:xlink="http://www.w3.org/1999/xlink" xml:space="preserve" style="fill-rule:evenodd;clip-rule:evenodd;stroke-linejoin:round;stroke-miterlimit:1.41421;">
    <rect id="Artboard1" x="0" y="0" width="200" height="200" style="fill:none;"/>
    <clipPath id="_clip1">
        <rect id="Artboard11" x="0" y="0" width="200" height="200"/>
    </clipPath>
    <g clip-path="url(#_clip1)">
        <g transform="matrix(1.45596,1.40477,-1.40477,1.45596,94.8816,-186.073)">
            <path d="M73.787,73.787C66.835,80.739 62.929,90.168 62.929,100C62.929,120.46 79.54,137.071 100,137.071C120.46,137.071 137.071,120.46 137.071,100C137.071,79.526 120.474,62.929 100,62.929L100,74.051C114.331,74.051 125.949,85.669 125.949,100C125.949,114.322 114.322,125.949 100,125.949C85.678,125.949 74.051,114.322 74.051,100C74.051,93.118 76.784,86.517 81.651,81.651L73.787,73.787Z"/>
        </g>
        <g transform="matrix(0.561997,2.53136,-2.04916,0.454943,253.723,-257.437)">
            <path d="M97.372,82.277L111.664,110.861L83.08,110.861L97.372,82.277Z"/>
        </g>
    </g>
</svg>
